<svg width="19" height="20" viewBox="0 0 19 20" fill="none" xmlns="http://www.w3.org/2000/svg">
<path fill-rule="evenodd" clip-rule="evenodd" d="M18.0369 8.32227H1.69824C1.31874 8.32227 1.01074 8.01427 1.01074 7.63477C1.01074 7.25527 1.31874 6.94727 1.69824 6.94727H18.0369C18.4164 6.94727 18.7244 7.25527 18.7244 7.63477C18.7244 8.01427 18.4164 8.32227 18.0369 8.32227Z" fill="#A0BCD0"/>
<path fill-rule="evenodd" clip-rule="evenodd" d="M13.9431 11.9021C13.5636 11.9021 13.252 11.5941 13.252 11.2146C13.252 10.8351 13.5554 10.5271 13.9349 10.5271H13.9431C14.3226 10.5271 14.6306 10.8351 14.6306 11.2146C14.6306 11.5941 14.3226 11.9021 13.9431 11.9021Z" fill="#A0BCD0"/>
<path fill-rule="evenodd" clip-rule="evenodd" d="M9.87574 11.9021C9.49624 11.9021 9.18457 11.5941 9.18457 11.2146C9.18457 10.8351 9.48799 10.5271 9.86749 10.5271H9.87574C10.2552 10.5271 10.5632 10.8351 10.5632 11.2146C10.5632 11.5941 10.2552 11.9021 9.87574 11.9021Z" fill="#A0BCD0"/>
<path fill-rule="evenodd" clip-rule="evenodd" d="M5.79951 11.9021C5.42001 11.9021 5.10742 11.5941 5.10742 11.2146C5.10742 10.8351 5.41176 10.5271 5.79126 10.5271H5.79951C6.17901 10.5271 6.48701 10.8351 6.48701 11.2146C6.48701 11.5941 6.17901 11.9021 5.79951 11.9021Z" fill="#A0BCD0"/>
<path fill-rule="evenodd" clip-rule="evenodd" d="M13.9431 15.4648C13.5636 15.4648 13.252 15.1568 13.252 14.7773C13.252 14.3978 13.5554 14.0898 13.9349 14.0898H13.9431C14.3226 14.0898 14.6306 14.3978 14.6306 14.7773C14.6306 15.1568 14.3226 15.4648 13.9431 15.4648Z" fill="#A0BCD0"/>
<path fill-rule="evenodd" clip-rule="evenodd" d="M9.87574 15.4648C9.49624 15.4648 9.18457 15.1568 9.18457 14.7773C9.18457 14.3978 9.48799 14.0898 9.86749 14.0898H9.87574C10.2552 14.0898 10.5632 14.3978 10.5632 14.7773C10.5632 15.1568 10.2552 15.4648 9.87574 15.4648Z" fill="#A0BCD0"/>
<path fill-rule="evenodd" clip-rule="evenodd" d="M5.79951 15.4648C5.42001 15.4648 5.10742 15.1568 5.10742 14.7773C5.10742 14.3978 5.41176 14.0898 5.79126 14.0898H5.79951C6.17901 14.0898 6.48701 14.3978 6.48701 14.7773C6.48701 15.1568 6.17901 15.4648 5.79951 15.4648Z" fill="#A0BCD0"/>
<path fill-rule="evenodd" clip-rule="evenodd" d="M13.5693 4.55166C13.1898 4.55166 12.8818 4.24366 12.8818 3.86416V0.847412C12.8818 0.467912 13.1898 0.159912 13.5693 0.159912C13.9488 0.159912 14.2568 0.467912 14.2568 0.847412V3.86416C14.2568 4.24366 13.9488 4.55166 13.5693 4.55166Z" fill="#A0BCD0"/>
<path fill-rule="evenodd" clip-rule="evenodd" d="M6.16504 4.55166C5.78554 4.55166 5.47754 4.24366 5.47754 3.86416V0.847412C5.47754 0.467912 5.78554 0.159912 6.16504 0.159912C6.54454 0.159912 6.85254 0.467912 6.85254 0.847412V3.86416C6.85254 4.24366 6.54454 4.55166 6.16504 4.55166Z" fill="#A0BCD0"/>
<mask id="mask0_507_6906" style="mask-type:alpha" maskUnits="userSpaceOnUse" x="0" y="1" width="19" height="19">
<path fill-rule="evenodd" clip-rule="evenodd" d="M0.925781 1.60742H18.8008V19.8682H0.925781V1.60742Z" fill="white"/>
</mask>
<g mask="url(#mask0_507_6906)">
<path fill-rule="evenodd" clip-rule="evenodd" d="M5.9867 2.98242C3.60978 2.98242 2.30078 4.25017 2.30078 6.55192V14.8468C2.30078 17.199 3.60978 18.4933 5.9867 18.4933H13.7399C16.1168 18.4933 17.4258 17.2228 17.4258 14.9165V6.55192C17.4294 5.41984 17.1251 4.53984 16.521 3.93484C15.8995 3.31151 14.9416 2.98242 13.7481 2.98242H5.9867ZM13.7399 19.8683H5.9867C2.86545 19.8683 0.925781 17.9443 0.925781 14.8468V6.55192C0.925781 3.50126 2.86545 1.60742 5.9867 1.60742H13.7481C15.3147 1.60742 16.6099 2.07676 17.4945 2.96317C18.3534 3.82576 18.8054 5.066 18.8008 6.55375V14.9165C18.8008 17.9708 16.8611 19.8683 13.7399 19.8683Z" fill="#A0BCD0"/>
</g>
</svg>
