<svg width="123" height="45" viewBox="0 0 123 45" fill="none" xmlns="http://www.w3.org/2000/svg">
<path d="M0.187998 36L8.27193 9.58287H16.1213L17.8896 19.8141C17.9979 20.4396 18.0941 21.1013 18.1784 21.799C18.2746 22.4847 18.3648 23.2004 18.449 23.9463C18.5813 23.417 18.7558 22.8516 18.9723 22.2501C19.2009 21.6366 19.5197 20.8727 19.9287 19.9584L24.6563 9.58287H32.4515L33.0831 36H26.569L26.4969 23.4049C26.4969 22.6952 26.5089 21.9975 26.533 21.3118C26.557 20.6141 26.5931 19.9163 26.6412 19.2186C26.3766 20.1088 25.9255 21.2216 25.2879 22.5569C25.1676 22.8215 25.0774 23.02 25.0172 23.1523L18.9904 36H14.7138L12.2417 23.1704C12.1094 22.5208 11.9891 21.8712 11.8808 21.2216C11.7846 20.5599 11.6944 19.8983 11.6102 19.2367C11.4778 20.0186 11.3335 20.7584 11.1771 21.4561C11.0327 22.1539 10.8824 22.8035 10.726 23.4049L7.06295 36H0.187998ZM49.8464 24.7222C49.7863 23.7358 49.4555 22.9538 48.854 22.3764C48.2525 21.799 47.4585 21.5103 46.4721 21.5103C45.5819 21.5103 44.7819 21.793 44.0722 22.3584C43.3745 22.9238 42.8452 23.7117 42.4843 24.7222H49.8464ZM42.0512 28.4213V28.8363C42.0512 29.9912 42.3459 30.8693 42.9354 31.4708C43.5248 32.0723 44.385 32.3731 45.5158 32.3731C46.3097 32.3731 47.0556 32.2107 47.7533 31.8859C48.463 31.549 49.2209 31.0137 50.0269 30.2799L53.4914 33.7805C52.4569 34.767 51.2599 35.5068 49.9006 36C48.5532 36.4932 47.0435 36.7398 45.3714 36.7398C42.4001 36.7398 40.0904 35.9519 38.4423 34.376C36.8063 32.7881 35.9883 30.5686 35.9883 27.7176C35.9883 24.6019 36.9627 22.0697 38.9115 20.1208C40.8723 18.172 43.4046 17.1976 46.5082 17.1976C49.3231 17.1976 51.5847 18.0578 53.2929 19.778C55.0132 21.4982 55.8733 23.7779 55.8733 26.6169C55.8733 26.8695 55.8372 27.3266 55.765 27.9882C55.741 28.1928 55.7229 28.3371 55.7109 28.4213H42.0512ZM64.8414 27.5371C64.8414 28.704 65.1963 29.6423 65.906 30.3521C66.6158 31.0618 67.5541 31.4167 68.721 31.4167C69.9961 31.4167 71.0547 30.9235 71.8968 29.9371C72.7509 28.9386 73.178 27.6935 73.178 26.2018C73.178 25.0711 72.8231 24.1568 72.1133 23.4591C71.4036 22.7493 70.4773 22.3945 69.3345 22.3945C68.0353 22.3945 66.9586 22.8817 66.1045 23.8561C65.2624 24.8305 64.8414 26.0575 64.8414 27.5371ZM71.9329 33.564C71.0547 34.5865 70.0743 35.3624 68.9916 35.8917C67.921 36.409 66.7662 36.6676 65.5271 36.6676C63.4339 36.6676 61.7137 35.8797 60.3664 34.3038C59.0311 32.7279 58.3634 30.6829 58.3634 28.1687C58.3634 25.0169 59.2717 22.4005 61.0882 20.3193C62.9046 18.2382 65.1722 17.1976 67.8909 17.1976C69.154 17.1976 70.2848 17.4623 71.2833 17.9916C72.2818 18.5089 73.184 19.3149 73.99 20.4096L74.405 17.7751H80.504L77.6169 36H71.6261L71.9329 33.564ZM82.3446 36L85.2317 17.7751H91.4029L90.9518 20.6261C91.9502 19.4231 92.9427 18.551 93.9291 18.0096C94.9156 17.4683 95.9922 17.1976 97.1591 17.1976C99.0477 17.1976 100.509 17.7089 101.544 18.7314C102.59 19.7419 103.114 21.1614 103.114 22.9899C103.114 23.6155 103.006 24.656 102.789 26.1116C102.777 26.2439 102.765 26.3522 102.753 26.4364L101.237 36H94.7953L96.311 26.3462C96.3591 26.0695 96.3952 25.7988 96.4193 25.5342C96.4554 25.2695 96.4734 25.041 96.4734 24.8485C96.4734 24.0545 96.2629 23.4531 95.8418 23.0441C95.4208 22.635 94.8013 22.4305 93.9833 22.4305C92.8645 22.4305 91.9863 22.8335 91.3488 23.6395C90.7232 24.4455 90.2721 25.7327 89.9954 27.501L88.6962 36H82.3446ZM120.888 19.1104L119.011 23.2065C118.181 22.617 117.417 22.19 116.719 21.9253C116.022 21.6486 115.33 21.5103 114.644 21.5103C114.067 21.5103 113.586 21.6426 113.201 21.9073C112.828 22.1719 112.641 22.4967 112.641 22.8817C112.641 23.435 113.267 23.9523 114.518 24.4335C115.071 24.638 115.504 24.8124 115.817 24.9568C117.561 25.7146 118.782 26.5026 119.48 27.3206C120.178 28.1266 120.527 29.1371 120.527 30.3521C120.527 32.2648 119.787 33.8046 118.307 34.9715C116.828 36.1263 114.855 36.7037 112.389 36.7037C110.993 36.7037 109.658 36.5173 108.383 36.1444C107.12 35.7835 105.893 35.2301 104.702 34.4843L106.849 30.1175C108.076 30.8754 109.105 31.4107 109.935 31.7235C110.765 32.0362 111.547 32.1926 112.28 32.1926C112.918 32.1926 113.429 32.0543 113.814 31.7776C114.199 31.4889 114.392 31.122 114.392 30.6769C114.392 29.9912 113.507 29.2874 111.739 28.5657C111.21 28.3491 110.801 28.1807 110.512 28.0604C109.105 27.4349 108.106 26.7552 107.517 26.0214C106.927 25.2876 106.632 24.3733 106.632 23.2786C106.632 21.5343 107.36 20.0848 108.816 18.9299C110.271 17.7751 112.142 17.1976 114.428 17.1976C115.583 17.1976 116.707 17.36 117.802 17.6848C118.897 18.0096 119.925 18.4848 120.888 19.1104Z" fill="#181B28"/>
</svg>
